<svg width="135" height="31" viewBox="0 0 135 31" fill="none" xmlns="http://www.w3.org/2000/svg">
<path d="M2.11364 23V5.54545H4.22727V13.3182H13.5341V5.54545H15.6477V23H13.5341V15.1932H4.22727V23H2.11364ZM34.6065 14.2727C34.6065 16.1136 34.2741 17.7045 33.6094 19.0455C32.9446 20.3864 32.0327 21.4205 30.8736 22.1477C29.7145 22.875 28.3906 23.2386 26.902 23.2386C25.4134 23.2386 24.0895 22.875 22.9304 22.1477C21.7713 21.4205 20.8594 20.3864 20.1946 19.0455C19.5298 17.7045 19.1974 16.1136 19.1974 14.2727C19.1974 12.4318 19.5298 10.8409 20.1946 9.5C20.8594 8.15909 21.7713 7.125 22.9304 6.39773C24.0895 5.67045 25.4134 5.30682 26.902 5.30682C28.3906 5.30682 29.7145 5.67045 30.8736 6.39773C32.0327 7.125 32.9446 8.15909 33.6094 9.5C34.2741 10.8409 34.6065 12.4318 34.6065 14.2727ZM32.5611 14.2727C32.5611 12.7614 32.3082 11.4858 31.8026 10.446C31.3026 9.40625 30.6236 8.61932 29.7656 8.08523C28.9134 7.55114 27.9588 7.28409 26.902 7.28409C25.8452 7.28409 24.8878 7.55114 24.0298 8.08523C23.1776 8.61932 22.4986 9.40625 21.9929 10.446C21.4929 11.4858 21.2429 12.7614 21.2429 14.2727C21.2429 15.7841 21.4929 17.0597 21.9929 18.0994C22.4986 19.1392 23.1776 19.9261 24.0298 20.4602C24.8878 20.9943 25.8452 21.2614 26.902 21.2614C27.9588 21.2614 28.9134 20.9943 29.7656 20.4602C30.6236 19.9261 31.3026 19.1392 31.8026 18.0994C32.3082 17.0597 32.5611 15.7841 32.5611 14.2727ZM38.1605 23V5.54545H40.2741V21.125H48.3878V23H38.1605ZM53.7741 5.54545V23H51.6605V5.54545H53.7741Z" fill="#C4752D"/>
<path d="M64.5 23H59.1136V5.54545H64.7386C66.4318 5.54545 67.8807 5.89489 69.0852 6.59375C70.2898 7.28693 71.2131 8.28409 71.8551 9.58523C72.4972 10.8807 72.8182 12.4318 72.8182 14.2386C72.8182 16.0568 72.4943 17.6222 71.8466 18.9347C71.1989 20.2415 70.2557 21.2472 69.017 21.9517C67.7784 22.6506 66.2727 23 64.5 23ZM61.2273 21.125H64.3636C65.8068 21.125 67.0028 20.8466 67.9517 20.2898C68.9006 19.733 69.608 18.9403 70.0739 17.9119C70.5398 16.8835 70.7727 15.6591 70.7727 14.2386C70.7727 12.8295 70.5426 11.6165 70.0824 10.5994C69.6222 9.5767 68.9347 8.79261 68.0199 8.24716C67.1051 7.69602 65.9659 7.42045 64.6023 7.42045H61.2273V21.125Z" fill="#C4752D"/>
<path d="M75.8295 23H73.6136L80.0227 5.54545H82.2045L88.6136 23H86.3977L81.1818 8.30682H81.0455L75.8295 23ZM76.6477 16.1818H85.5795V18.0568H76.6477V16.1818Z" fill="#C4752D"/>
<path d="M90.2376 22.1954L90.7095 20.7357L104.439 7.37128L94.9277 7.37128L95.5045 5.58719L107.539 5.58719L107.067 7.0469L93.3371 20.4114H102.848L102.272 22.1954H90.2376Z" fill="#C4752D"/>
<path d="M110.114 23V5.54545H120.648V7.42045H112.227V13.3182H120.102V15.1932H112.227V21.125H120.784V23H110.114Z" fill="#C4752D"/>
<rect x="56.5" y="0.5" width="68" height="28" stroke="#C4752D"/>
</svg>
